<svg xmlns="http://www.w3.org/2000/svg" width="24" height="24" viewBox="0 0 24 24" fill="none"><path d="M12 21C16.9706 21 21 16.9706 21 12C21 7.02944 16.9706 3 12 3C7.02944 3 3 7.02944 3 12C3 16.9706 7.02944 21 12 21Z" stroke="black" stroke-width="1.5" stroke-linecap="round" stroke-linejoin="round"></path><path d="M20.0776 15.9721L14.9883 12.8419C14.8991 12.787 14.7994 12.7515 14.6956 12.7375L12.5563 12.4491C12.3957 12.4275 12.2324 12.4584 12.0908 12.5374C11.9492 12.6163 11.8371 12.739 11.7711 12.8871L10.4868 15.7688C10.4271 15.9028 10.408 16.0514 10.4319 16.1962C10.4558 16.3409 10.5216 16.4755 10.6212 16.5832L12.3837 18.4896C12.4636 18.576 12.522 18.6801 12.5543 18.7932C12.5865 18.9064 12.5917 19.0256 12.5693 19.1412L12.2103 20.9971" stroke="black" stroke-width="1.5" stroke-linecap="round" stroke-linejoin="round"></path><path d="M6.08916 5.21338L5.25064 7.19617C5.17587 7.37296 5.17174 7.57169 5.23909 7.75144L6.31635 10.6266C6.36047 10.7443 6.43347 10.8491 6.52866 10.9312C6.62384 11.0134 6.73815 11.0703 6.86108 11.0967L8.87013 11.5285C8.98161 11.5525 9.08616 11.6015 9.17583 11.672C9.2655 11.7424 9.33792 11.8323 9.3876 11.935L9.74438 12.672C9.80578 12.7989 9.90167 12.9059 10.0211 12.9807C10.1405 13.0556 10.2785 13.0953 10.4195 13.0953H11.6788" stroke="black" stroke-width="1.5" stroke-linecap="round" stroke-linejoin="round"></path><path d="M14.2945 3.29492L15.1695 4.86227C15.2522 5.01044 15.2822 5.18228 15.2547 5.34972C15.2271 5.51716 15.1436 5.6703 15.0177 5.78413L12.4948 8.06577C12.452 8.1045 12.4048 8.13815 12.3543 8.16606L11.2066 8.79984C11.0956 8.86114 10.9709 8.8933 10.8441 8.8933H8.84295C8.69538 8.8933 8.55109 8.93683 8.42814 9.01845C8.30519 9.10007 8.20906 9.21615 8.15177 9.35214L7.37109 11.2054" stroke="black" stroke-width="1.5" stroke-linecap="round" stroke-linejoin="round"></path></svg>