<svg xmlns="http://www.w3.org/2000/svg" width="41" height="41" viewBox="0 0 41 41" fill="none"><path d="M20.0639 33.8576C20.0639 33.8576 4.38916 25.0798 4.38916 14.4209C4.38948 12.537 5.04225 10.7114 6.2365 9.25438C7.43075 7.79738 9.09275 6.79897 10.9399 6.42888C12.7871 6.0588 14.7055 6.33989 16.3688 7.22436C18.0322 8.10884 19.3379 9.5421 20.0639 11.2805L20.0639 11.2805C20.7899 9.54211 22.0956 8.10885 23.759 7.22437C25.4224 6.33989 27.3407 6.0588 29.1879 6.42888C31.0351 6.79896 32.6971 7.79738 33.8913 9.25437C35.0856 10.7114 35.7384 12.537 35.7387 14.4209C35.7387 25.0798 20.0639 33.8576 20.0639 33.8576Z" stroke="black" stroke-width="1.43312" stroke-linecap="round" stroke-linejoin="round"></path></svg>