<svg xmlns="http://www.w3.org/2000/svg" width="41" height="41" viewBox="0 0 41 41" fill="none"><path d="M20.0291 35.6711C28.3133 35.6711 35.0291 28.9554 35.0291 20.6711C35.0291 12.3869 28.3133 5.67114 20.0291 5.67114C11.7448 5.67114 5.02905 12.3869 5.02905 20.6711C5.02905 28.9554 11.7448 35.6711 20.0291 35.6711Z" stroke="black" stroke-width="2" stroke-miterlimit="10"></path><path d="M14.4041 19.4211C15.4396 19.4211 16.2791 18.5817 16.2791 17.5461C16.2791 16.5106 15.4396 15.6711 14.4041 15.6711C13.3685 15.6711 12.5291 16.5106 12.5291 17.5461C12.5291 18.5817 13.3685 19.4211 14.4041 19.4211Z" fill="black"></path><path d="M25.6541 19.4211C26.6896 19.4211 27.5291 18.5817 27.5291 17.5461C27.5291 16.5106 26.6896 15.6711 25.6541 15.6711C24.6185 15.6711 23.7791 16.5106 23.7791 17.5461C23.7791 18.5817 24.6185 19.4211 25.6541 19.4211Z" fill="black"></path><path d="M14.4041 19.4211C15.4396 19.4211 16.2791 18.5817 16.2791 17.5461C16.2791 16.5106 15.4396 15.6711 14.4041 15.6711C13.3685 15.6711 12.5291 16.5106 12.5291 17.5461C12.5291 18.5817 13.3685 19.4211 14.4041 19.4211Z" fill="black"></path><path d="M25.6541 19.4211C26.6896 19.4211 27.5291 18.5817 27.5291 17.5461C27.5291 16.5106 26.6896 15.6711 25.6541 15.6711C24.6185 15.6711 23.7791 16.5106 23.7791 17.5461C23.7791 18.5817 24.6185 19.4211 25.6541 19.4211Z" fill="black"></path><path d="M26.5291 28.1712C25.8683 27.0328 24.92 26.0879 23.7793 25.431C22.6386 24.7742 21.3454 24.4285 20.0291 24.4285C18.7127 24.4285 17.4195 24.7742 16.2788 25.431C15.1381 26.0879 14.1898 27.0328 13.5291 28.1712" stroke="black" stroke-width="2" stroke-linecap="round" stroke-linejoin="round"></path></svg>