<svg xmlns="http://www.w3.org/2000/svg" viewBox="0 0 300 300" width="300" height="300"><title>logo-menshealth-300x300</title><style>		.s0 { fill: #000000 } 	</style><path id="Layer" fill-rule="evenodd" class="s0" d="m242.7 118.9v57.8h3.2v3.5h-15.7v-3.5h2.2v-52.8h-3.4v-1.8c0-1.6 0.1-1.8 0.2-1.8 0.4 0 12.4-1.3 12.4-1.4 0.1 0 0.8 0 1.1 0zm35.7 0h0.4v10.3c0 9.6 0 10.3 0.2 10.1 0.1-0.2 0.6-0.8 1.2-1.4 2.1-2.1 4.6-3.1 7.8-2.9 2.5 0.1 3.8 0.6 5.2 2 1.3 1.4 2 3 2.3 5.6 0.1 0.7 0.1 6.2 0.1 17.6v16.4h3v3.6h-15.8v-3.6h2.3v-16.3c0-15.5 0-16.5-0.2-17-0.5-1.1-1.5-1.7-2.8-1.4-1.5 0.3-2.3 1.4-2.8 3.6-0.2 0.8-0.2 2-0.2 16l-0.1 15.2h2.1v3.5h-14.6v-3.5h2.1v-52.8h-3v-3.5l5.7-0.7c3.1-0.3 5.9-0.6 6.1-0.7 0.3 0 0.7-0.1 1-0.1zm-176.7 0.6h9.1v4.9l-1.4 5.8c-0.8 3.2-1.5 6-1.6 6.2l-0.1 0.5h-3.3v-7.9h-1.4l-1.3-0.1zm-101.7 0.2h15.9l4.1 16.9c2.3 9.3 4.1 16.8 4.2 16.8 0-0.1 1.7-7.5 3.7-16.5 2.1-9 3.7-16.6 3.8-16.8l0.1-0.4h15.6v3.4h-2.9v53.6h2.9v3.6h-17.8v-3.6h3.5c0-10.3 0-37.4 0-37.4 0 0.1-2.2 9.3-4.8 20.6l-4.7 20.4h-2.7c-2.6 0-2.8 0-2.9-0.2-0.1-0.1-2.2-9.3-4.8-20.4-2.6-11-4.8-20.1-4.8-20.2 0-0.1 0 8.3 0 18.5v18.7h3.8v3.6h-12.2v-3.6h3.3v-53.6h-3.3zm33.1 19.6q0 0 0 0zm98.6-19.6h18.4v3.5h-3.9v25.1h11.7v-25.1h-3.7v-3.5h18.2v3.5h-3.1v53.5h1.5l1.6 0.1v3.6h-18.2v-3.6h3.7v-24.4l-5.9 0.1h-5.8v24.2l3.9 0.1v3.6h-18.4v-3.6l1.5-0.1h1.6l0.1-53.5h-3.2zm122.8 3.6h4.1v12.6h7.2v4.2h-7.3v16.9c0 18.5 0 17.8 0.7 18.4 0.2 0.3 0.4 0.3 0.9 0.3 0.6 0 0.7 0 1-0.4 0.6-0.6 0.6-0.9 0.7-5.7v-4.4h4v3.5c0 5.2-0.1 6.5-1 8.4q-1.4 2.9-5 3.8c-1.3 0.3-3.7 0.4-5.3 0.1-3.3-0.6-4.8-1.7-5.7-4.3-0.7-2-0.7-1.2-0.8-19.8v-17h-1.6l-1.6-0.1v-3.4l1.8-0.1h1.8l2.1-4.4c1.1-2.4 2.4-5.3 3-6.5zm-193 11.7c8.5-0.1 12.1 5.8 12.5 20.3l0.1 2.7h-16.3l0.1 3.7c0.1 6 0.6 9.2 1.7 11.6 0.5 1 1.5 2 2.4 2.4 0.9 0.3 2.7 0.3 3.6 0 1.3-0.5 2.4-1.7 2.9-3.4 0.5-1.5 0.6-2 0.7-4.6l0.1-2.4h4.3l-0.1 1.9c-0.2 3.5-0.5 5.6-1.2 7.5-1 2.6-2.4 4.2-4.6 5.3-1.6 0.8-3.6 1.2-5.9 1.2-7.2 0-12.2-4.4-14.2-12.5-0.8-3.2-1-5.5-1-9.8 0-3.9 0.2-5.7 0.8-8.7 1.6-8.4 6-14 11.7-15 0.5-0.1 1.6-0.2 2.4-0.2zm128.5 0.3c3 0.8 5.1 2.6 6.5 5.6 1.7 3.4 2.4 7.6 2.6 15.2l0.1 1.9h-16.2v3c0.1 9.3 1.3 13.5 4 14.6 0.6 0.2 1 0.3 2 0.3 1.2 0 1.4 0 2-0.3 2.2-1 3.2-3.5 3.3-8.1l0.1-2.2h4.2v2.3c-0.2 4.9-1.2 8.2-3.1 10.4-2 2.2-4.8 3.2-8.6 3.2-6.6 0-11.4-3.7-13.7-10.8-1-3-1.3-5.8-1.4-10.4-0.1-3.9 0-5.8 0.5-8.6 1.5-9.2 5.8-15 12-16.3 1.2-0.2 4.4-0.1 5.7 0.2zm-103.6-0.2h0.2v2.2c0 1.4 0.1 2.2 0.1 2.2q0.2 0 0.2-0.1c0-0.2 1.6-1.8 2.3-2.3 0.9-0.7 2.4-1.4 3.5-1.7 1-0.3 4-0.3 5-0.1 2.6 0.7 4.5 2.6 5.2 5.5 0.4 1.8 0.5 2.7 0.5 19.6v16.4h2.1v3.6h-14.9v-3.6h2.4v-16c0-10.9 0-16.2-0.1-16.7-0.2-0.9-0.6-1.6-1.2-1.9-0.6-0.3-1.7-0.3-2.4 0-1.4 0.7-2.1 2.2-2.3 5-0.1 1-0.1 5.9-0.1 15.5v14l1.1 0.1h1v3.6h-15.8v-3.6h3.2v-36.6h-3.1v-3.6l6.4-0.8c3.5-0.4 6.5-0.7 6.7-0.7zm36.9 0.3c2.1 0.4 4.1 1 5.6 1.8l0.6 0.3v13.5h-3.5v-0.7c0-1.8-0.5-5-1-6.7-1-3.2-2.6-4.7-5.1-4.7-2.6 0-4 1.7-4 4.8 0 2.4 0.9 4.5 3.1 6.6 0.8 0.9 1.3 1.4 4.2 3.8 4.1 3.4 6 5.9 7 9.3 0.6 1.7 0.7 2.7 0.7 5 0 2.2-0.2 3.3-0.7 4.9-1.1 3.3-3.6 5.9-7.1 7.1-4.2 1.4-10.5 0.9-15.2-1.2l-0.8-0.4v-14.6h3.5l0.1 1.5c0.2 3.3 0.8 6.3 1.6 8.1 1.1 2.5 2.8 3.6 5.3 3.5 1.3-0.1 2.1-0.5 2.8-1.2 0.5-0.5 1.1-1.6 1.2-2.5 0.2-1 0.2-2.6 0-3.5-0.7-2.5-1.9-4.1-6-7.8-4-3.6-5.8-5.7-7-8-1.5-3.1-2-7.3-1.1-10.7 0.3-1.2 1.2-3.1 2-4.2 1.8-2.2 4.7-3.7 8-4.2 1.1-0.1 4.7 0 5.8 0.2zm91.5-0.3c6-0.1 9.6 2.1 11 6.4 0.6 2 0.6 1 0.6 18.8l0.1 16.4 2.3 0.1v3.6h-11.9v-2.1l-0.1-2.1-0.7 1c-1.7 2.6-4.2 4-7.2 4-4.3 0-7.1-2.6-8.2-7.5-0.3-1.5-0.4-5.6-0.2-7.8 0.4-3.6 1.6-6.4 3.8-8.4 1.9-1.9 5.5-3.7 10.3-5.4 0.6-0.3 1.3-0.5 1.4-0.5 0.2-0.1 0.2-0.3 0.1-4.8 0-5.1-0.1-5.5-0.7-6.6-0.4-0.7-1.1-1-1.9-1-1 0-1.5 0.2-2 0.7-0.8 0.9-1 2.3-1 7.1v3.4h-9.1v-2c0-1.6 0.1-2.4 0.3-3.2 0.7-3.7 3-6.7 6.5-8.5 1.5-0.9 2.7-1.2 4.9-1.5 0.2-0.1 0.9-0.1 1.7-0.1zm-155.3 5.8c-0.8 1.4-1.2 3.9-1.5 8.9-0.1 1.2-0.1 2.6-0.1 3.2v1.2l3.2-0.1h3.2v-3.3c-0.1-7.5-0.7-10.5-2.3-10.9-1-0.3-2 0.1-2.5 1zm126.7-1.1c-0.1 0-0.3 0.1-0.4 0.1-0.5 0.1-1 0.7-1.4 1.3-0.8 1.5-1.2 5.6-1.3 11.1l-0.1 1.8h3.2l3.2 0.1v-2.7c0-7-0.6-10.8-1.9-11.4-0.3-0.2-1.1-0.4-1.3-0.3zm29.9 15.7c-0.4 0-2.4 1.4-3.2 2.3-1.8 1.9-2.3 4-2.3 10 0 3.5 0.1 4.5 0.7 5.7q0.7 1.6 2.5 1.1c1.1-0.2 1.8-1 2.1-2.6 0.2-0.6 0.2-2 0.2-8.7 0.1-6.7 0.1-7.8 0-7.8zm83.2 17.2c0.5 0.2 0.7 0.6 0.7 1.3 0 0.5-0.1 0.6-0.4 1-0.4 0.3-0.5 0.4-1 0.4-0.4 0-0.6-0.1-0.9-0.4-0.3-0.4-0.4-0.5-0.4-1 0-0.7 0.1-1 0.6-1.3q0.7-0.4 1.4 0zm-1.1 0.1c-0.5 0.2-0.8 0.7-0.8 1.1 0 0.7 0.8 1.5 1.5 1.3 1.2-0.3 1.3-2 0.2-2.4-0.5-0.2-0.5-0.2-0.9 0zm-0.1 0.4h0.6c0.4 0.1 0.5 0.1 0.6 0.3 0 0.2-0.1 0.4-0.1 0.5-0.1 0.1-0.1 0.2-0.1 0.3q0.3 0.3 0 0.3c-0.1 0-0.2-0.1-0.3-0.2-0.1-0.1-0.2-0.2-0.3-0.2-0.1 0-0.1 0.1-0.1 0.2 0 0.1-0.1 0.2-0.2 0.2 0 0-0.1-0.3-0.1-0.7zm0.5 0.3c-0.2 0-0.2 0-0.2 0.2 0 0.2 0 0.3 0.2 0.2 0.1 0 0.3-0.1 0.3-0.2 0-0.2 0-0.2-0.3-0.2z"></path></svg>