<svg xmlns="http://www.w3.org/2000/svg" viewBox="0 0 300 300" width="300" height="300"><title>logo-huffpost-300x300</title><defs><clipPath clipPathUnits="userSpaceOnUse" id="cp1"><path d="m0 132.45h300v35.1h-300z"></path></clipPath></defs><style>		.s0 { fill: #000000 } 	</style><g id="Clip-Path: Clip-Path: Clip-Path" clip-path="url(#cp1)"><g id="Clip-Path: Clip-Path"><g id="Clip-Path"><g id="Layer"><path id="Layer" class="s0" d="m38.8 166.8h11l5.8-33.6h-10.9l-2.2 12.1h-9.5l2.2-12.1h-11l-5.9 33.6h11l2.2-12.5h9.5z"></path><path id="Layer" class="s0" d="m61.8 133.2l-3.3 18.7c-0.3 1.4-0.4 2.8-0.4 4.2 0 9.9 8.7 11.4 13.9 11.4 10.9 0 15.6-3.6 17.3-13.4l3.7-21h-11l-3.1 17.6c-1 5.5-1.7 8.4-5.8 8.4-2.7 0-4-1.4-4-4.4 0-1.1 0.2-2.5 0.5-4.2l3.2-17.4h-11z"></path><path id="Layer" fill-rule="evenodd" class="s0" d="m156.7 133.2h14c8.1 0 12.7 3.7 12.7 10.4 0 9.4-5.3 14.6-14.9 14.6h-5.1l-1.6 8.6h-10.9zm16.1 12.2c0-2.2-1.3-3.4-3.7-3.4h-2.9l-1.5 7.9h3.2c3.1 0 4.9-1.7 4.9-4.5z"></path><path id="Layer" fill-rule="evenodd" class="s0" d="m219.8 146.9c0 12.9-7.1 20.6-19 20.6-9.5 0-15.2-5.4-15.2-14.4 0-12.9 7.1-20.7 19-20.7 9.6 0 15.2 5.4 15.2 14.5zm-11.7 3.5c0.3-1.3 0.4-2.5 0.4-3.7 0-3.5-1.7-5.5-4.5-5.5-4.5 0-5.9 4-6.7 8.5-0.3 1.2-0.4 2.4-0.4 3.7 0 3.4 1.7 5.4 4.5 5.4 4.5 0 5.9-4.1 6.7-8.4z"></path><path id="Layer" class="s0" d="m257.9 166.8h11l4.3-24.6h8.3l1.6-9h-28.1l-1.6 9h8.8z"></path><path id="Layer" class="s0" d="m239.8 145.6c-3.5-1-4.9-1.5-4.9-3.1 0-1.1 0.7-2.4 2.8-2.4 1.5 0 2.8 0.8 3.3 2.2l9.7-2.7c-1.2-4.7-5.2-7.1-12.3-7.1-13.2 0-14.3 8.8-14.3 11.6 0 5.5 2.9 8.8 9.3 10.6 1.6 0.4 3.6 0.9 3.6 2.8 0 1.4-1.1 2.3-3 2.3-1.7 0-3.5-1-4.2-2.7l-9.5 2.6c1.1 5 5.8 7.8 13.1 7.8 5.7 0 15.1-1.5 15.1-11.7 0-5-2.9-8.4-8.8-10.2z"></path><path id="Layer" class="s0" d="m12.2 166.8l5.9-33.6h-18.1v33.6z"></path><path id="Layer" class="s0" d="m287.8 133.2l-5.9 33.6h18.1v-33.6z"></path><path id="Layer" class="s0" d="m106 156.9h9.2l1.5-8.5h-9.2l1.1-6.2h12.8l1.6-9h-23.8l-5.9 33.6h11z"></path><path id="Layer" class="s0" d="m134.7 156.9h9.3l1.5-8.5h-9.2l1-6.2h12.9l1.6-9h-23.8l-5.9 33.6h10.9z"></path></g></g></g></g></svg>