<svg xmlns="http://www.w3.org/2000/svg" viewBox="0 0 300 300" width="300" height="300"><title>logo-cnn-300x200</title><defs><clipPath clipPathUnits="userSpaceOnUse" id="cp1"><path d="m42.5 101.72h210.35v96.56h-210.35z"></path></clipPath></defs><style>		.s0 { fill: #000000 } 	</style><g id="Clip-Path: Clip-Path: Clip-Path" clip-path="url(#cp1)"><g id="Clip-Path: Clip-Path"><g id="Clip-Path"><g id="Layer"><path id="Layer" class="s0" d="m109.1 101.8c0-0.1-18.1 0-18.1 0-26.7 0-48.5 21.6-48.5 48.2 0 26.6 21.8 48.2 48.5 48.2h34.1c8.5 0 15.4-6.8 15.4-15.3l0.1-29.5 23.5 36.9c3.2 4.8 8.6 8 14.8 8 9.8 0 17.8-7.9 17.8-17.7v-27.2l23.5 36.9c3.2 4.8 8.7 8 14.8 8 9.8 0 17.8-7.9 17.8-17.7v-78.9h-12.1v78.9c0 3.1-2.5 5.6-5.7 5.6-1.9 0-3.6-1-4.7-2.5l-41.8-65.5c-0.3-0.4-0.7-0.7-1.1-0.8q-0.7-0.3-1.3 0c-0.4 0.1-0.9 0.4-1.1 0.7-0.3 0.4-0.4 0.9-0.4 1.3v61.2c0 3.1-2.6 5.6-5.7 5.6-2 0-3.7-1-4.7-2.5l-41.9-65.5c-0.2-0.4-0.6-0.7-1-0.8-0.4-0.2-0.9-0.2-1.4 0-0.4 0.1-0.8 0.4-1.1 0.7-0.2 0.4-0.3 0.8-0.3 1.3l-0.1 63.5c0 1.8-1.5 3.3-3.3 3.3h-34.1c-20.1 0-36.4-16.2-36.4-36.2 0-20 16.3-36.2 36.4-36.2h18.1z"></path><path id="Layer" class="s0" d="m111.1 170.7q0.7 0 1.2-0.5c0.3-0.3 0.5-0.7 0.5-1.2v-49.6c0-9.8 8-17.7 17.8-17.7 6.2 0 11.7 3.2 14.8 8l23.5 36.6v-26.9c0-9.8 8-17.7 17.8-17.7 6.2 0 11.7 3.2 14.9 8l23.4 36.6v-44.6h12.2v78.9q0 0.7-0.4 1.3c-0.3 0.3-0.7 0.6-1.1 0.7-0.4 0.2-0.9 0.2-1.3 0q-0.6-0.2-1.1-0.7l-41.9-65.7c-1-1.5-2.7-2.5-4.7-2.5-3.1 0-5.6 2.6-5.6 5.7v61.2q0 0.7-0.4 1.3c-0.3 0.3-0.7 0.6-1.1 0.7q-0.7 0.3-1.3 0-0.7-0.2-1.1-0.7l-41.9-65.7c-1-1.5-2.7-2.5-4.7-2.5-3.2 0-5.7 2.6-5.7 5.7v61.7c0 0.5-0.1 0.9-0.5 1.2-0.3 0.3-0.7 0.5-1.2 0.5h-32.2c-18.1 0-32.8-14.8-32.8-32.8 0-18.1 14.7-32.8 32.8-32.8 0 0 18.1-0.1 18.1 0v12.2l-18.1-0.1c-11.4 0-20.7 9.3-20.7 20.7 0 11.4 9.3 20.7 20.7 20.7z"></path></g></g></g></g></svg>