<svg xmlns="http://www.w3.org/2000/svg" viewBox="0 0 300 300" width="300" height="300"><title>logo-inc-300x300</title><defs><clipPath clipPathUnits="userSpaceOnUse" id="cp1"><path d="m25 106.9h250v86.2h-250z"></path></clipPath></defs><style>		.s0 { fill: #010101 } 		.s1 { fill: #000000 } 	</style><g id="Clip-Path: Clip-Path: Clip-Path" clip-path="url(#cp1)"><g id="Clip-Path: Clip-Path"><g id="Clip-Path"><g id="Layer"><path id="Layer" fill-rule="evenodd" class="s0" d="m264.5 191.9c-5.9 0-10.6-4.7-10.6-10.5 0-5.8 4.7-10.5 10.6-10.5 5.8 0 10.5 4.7 10.5 10.5 0 5.8-4.7 10.5-10.5 10.5z"></path><path id="Layer" fill-rule="evenodd" class="s1" d="m230.8 156.8l25.1-2.6q-3.7-23.4-27.5-26.7c-23.9-3.2-38.7 7.8-42.6 13.5-3.9 5.6-5.8 10.6-6.3 19.8-0.4 9.1 5.2 17.3 7.2 19.5 1.9 2.1 10.8 12.8 33.4 12.8 22.6 0 30-8.7 33.7-16.7q2.1-5 2.1-8.5h-24.7q-1.1 9.8-11.1 9.8c-10 0-11.2-9.4-10.8-16.9 0.4-7.6-0.3-17.6 10.4-18.1q10.6-0.4 11 14.1z"></path><path id="Layer" fill-rule="evenodd" class="s0" d="m182.3 191.6h-45v-18.5h8.5c0-6.3 0-13.1 0-19.4 0-1.8-0.4-3.5-1.6-5-1.3-1.7-3.1-2.7-5.1-3-3.8-0.7-7.3-0.2-10.4 2.2-2.8 2.2-4.2 5.1-4.3 8.6-0.1 5.5 0 11 0 16.5 2.9 0.1 5.8 0.1 8.7 0.1v18.5h-46v-18.4h8.3v-27.9h-8.3v-18.5h36.3v12.8c0.6-0.6 1-1 1.4-1.4 2.8-3.4 6.1-6.1 10.1-8 2.8-1.3 5.7-2 8.7-2.4 5.1-0.6 10.2-0.5 15.3 0.7 3.7 0.8 7.1 2.3 9.9 4.9 3 2.7 4.8 6 5.5 9.9q0.5 2.7 0.5 5.4 0 11.8 0 23.7v0.7h7.5zm-146.3-64.8h-11v-19.9h58.9v19.8h-11v46.4h11v18.5h-58.9v-18.5h11z"></path></g></g></g></g></svg>