<svg xmlns="http://www.w3.org/2000/svg" width="46" height="43" viewBox="0 0 46 43" fill="none"><path d="M15.4609 7.70068V8.70068C15.7365 8.70068 15.9999 8.58694 16.1889 8.38632L15.4609 7.70068ZM30.6905 7.70068L29.9626 8.38633C30.1516 8.58694 30.4149 8.70068 30.6905 8.70068V7.70068ZM30.4724 7.4759L31.1795 6.76879V6.76879L30.4724 7.4759ZM15.6791 7.4759L16.3862 8.183L16.3862 8.183L15.6791 7.4759ZM15.4609 6.70068H7.80558V8.70068H15.4609V6.70068ZM7.80558 6.70068C6.50764 6.70068 5.27856 7.67333 5.27856 9.08061H7.27856C7.27856 9.01055 7.30787 8.92669 7.39629 8.84679C7.48635 8.7654 7.6283 8.70068 7.80558 8.70068V6.70068ZM5.27856 9.08061V36.6791H7.27856V9.08061H5.27856ZM5.27856 36.6791C5.27856 38.0864 6.50764 39.059 7.80558 39.059V37.059C7.6283 37.059 7.48635 36.9943 7.39629 36.9129C7.30787 36.833 7.27856 36.7492 7.27856 36.6791H5.27856ZM7.80558 39.059H38.3458V37.059H7.80558V39.059ZM38.3458 39.059C39.6437 39.059 40.8728 38.0864 40.8728 36.6791H38.8728C38.8728 36.7492 38.8435 36.833 38.7551 36.9129C38.665 36.9943 38.5231 37.059 38.3458 37.059V39.059ZM40.8728 36.6791V9.08061H38.8728V36.6791H40.8728ZM40.8728 9.08061C40.8728 7.67333 39.6437 6.70068 38.3458 6.70068V8.70068C38.5231 8.70068 38.665 8.7654 38.7551 8.84679C38.8435 8.92669 38.8728 9.01055 38.8728 9.08061H40.8728ZM38.3458 6.70068H30.6905V8.70068H38.3458V6.70068ZM31.4185 7.01504C31.3402 6.9319 31.2605 6.8498 31.1795 6.76879L29.7653 8.183C29.8321 8.24989 29.8979 8.31767 29.9626 8.38633L31.4185 7.01504ZM31.1795 6.76879C29.0302 4.61954 26.1152 3.41211 23.0757 3.41211V5.41211C25.5848 5.41211 27.9911 6.40883 29.7653 8.183L31.1795 6.76879ZM23.0757 3.41211C20.0362 3.41211 17.1212 4.61954 14.972 6.76879L16.3862 8.183C18.1604 6.40883 20.5667 5.41211 23.0757 5.41211V3.41211ZM14.972 6.76879C14.891 6.84979 14.8113 6.93189 14.733 7.01505L16.1889 8.38632C16.2535 8.31767 16.3193 8.24989 16.3862 8.183L14.972 6.76879Z" fill="black"></path><path d="M29.6352 14.8725C29.6352 13.1328 28.9441 11.4644 27.714 10.2342C26.4838 9.00408 24.8154 8.31299 23.0757 8.31299C21.336 8.31299 19.6675 9.00408 18.4374 10.2342C17.2072 11.4644 16.5161 13.1328 16.5161 14.8725L23.0757 14.8725H29.6352Z" stroke="black" stroke-width="2" stroke-linecap="round" stroke-linejoin="round"></path><path d="M23.1029 14.2373C23.1029 13.7516 23.1 13.2858 23.095 12.9424C23.0899 12.5989 23.0829 12.406 23.0757 12.406C23.0685 12.406 23.0616 12.5989 23.0565 12.9424C23.0514 13.2858 23.0486 13.7516 23.0486 14.2373L23.0757 14.2373H23.1029Z" stroke="black" stroke-width="2" stroke-linecap="round" stroke-linejoin="round"></path></svg>